<svg width="104" height="180" viewBox="0 0 104 180" fill="none" xmlns="http://www.w3.org/2000/svg">
<rect y="16" width="104" height="164" fill="#9087E5"/>
<path d="M0 0H88.8727L104 16H0L0 0Z" fill="#AEA7EC"/>
<path d="M51.237 77.66C61.677 77.66 67.857 72.56 67.857 64.52C67.857 59.06 64.497 55.52 59.517 54.44C63.777 52.94 66.597 49.94 66.597 45.14C66.597 38.42 61.077 33.5 51.657 33.5C41.877 33.5 36.297 39.26 35.817 47.12H44.397C44.877 43.1 47.397 40.64 51.477 40.64C55.437 40.64 57.417 42.92 57.417 45.98C57.417 49.64 55.377 51.68 50.877 51.68H47.757V58.16H51.117C55.737 58.16 58.017 60.26 58.017 64.34C58.017 68.18 55.737 70.52 50.877 70.52C45.717 70.52 43.497 67.52 43.137 63.38H34.377C34.737 72.08 40.317 77.66 51.237 77.66Z" fill="white"/>
</svg>
